<svg width="24" height="24" viewBox="0 0 24 24" fill="none" xmlns="http://www.w3.org/2000/svg">
<path d="M15.1991 9.94404C14.7655 9.53341 14.4866 8.98609 14.4091 8.39404L14.0061 5.31104L11.2751 6.79704C10.7503 7.08248 10.1433 7.17853 9.55605 7.06904L6.50005 6.50004L7.07005 9.55604C7.17948 10.1437 7.08307 10.7511 6.79705 11.276L5.31105 14.006L8.39405 14.409C8.98611 14.4866 9.53343 14.7655 9.94405 15.199L12.0821 17.456L13.4181 14.649C13.6745 14.1096 14.1088 13.6749 14.6481 13.418L17.4561 12.082L15.1991 9.94404ZM15.2241 15.508L13.0111 20.158C12.9692 20.246 12.9065 20.3224 12.8285 20.3807C12.7505 20.439 12.6595 20.4774 12.5633 20.4927C12.4672 20.5079 12.3687 20.4995 12.2765 20.4683C12.1843 20.437 12.1011 20.3837 12.0341 20.313L8.49205 16.574C8.39717 16.474 8.27075 16.4098 8.13405 16.392L3.02805 15.724C2.93148 15.7115 2.83941 15.6756 2.75981 15.6195C2.68021 15.5634 2.61546 15.4887 2.57116 15.402C2.52686 15.3153 2.50434 15.219 2.50554 15.1217C2.50674 15.0243 2.53163 14.9286 2.57805 14.843L5.04005 10.319C5.10584 10.1982 5.12809 10.0584 5.10305 9.92304L4.16005 4.86004C4.14215 4.7642 4.14786 4.66545 4.1767 4.57232C4.20554 4.4792 4.25664 4.3945 4.32558 4.32556C4.39452 4.25663 4.47921 4.20553 4.57234 4.17669C4.66547 4.14784 4.76422 4.14213 4.86005 4.16004L9.92205 5.10304C10.0577 5.12831 10.1979 5.10606 10.3191 5.04004L14.8421 2.58004C14.9276 2.53342 15.0231 2.50832 15.1205 2.5069C15.2179 2.50548 15.3141 2.52779 15.401 2.57189C15.4878 2.61599 15.5626 2.68057 15.6189 2.76004C15.6752 2.83951 15.7113 2.93149 15.7241 3.02804L16.3921 8.13504C16.41 8.27138 16.4743 8.39741 16.5741 8.49204L20.3131 12.034C20.3837 12.1011 20.437 12.1843 20.4683 12.2765C20.4996 12.3687 20.5079 12.4672 20.4927 12.5633C20.4774 12.6595 20.439 12.7505 20.3807 12.8285C20.3224 12.9065 20.246 12.9692 20.1581 13.011L15.5081 15.224C15.3836 15.2833 15.2833 15.3836 15.2241 15.508ZM16.0211 17.435L17.4351 16.021L21.6781 20.263L20.2631 21.678L16.0211 17.435Z" fill="#FEF8EF"/>
</svg>
