<svg width="12" height="12" viewBox="0 0 12 12" fill="none" xmlns="http://www.w3.org/2000/svg">
<path d="M11.4415 10.3608C11.6856 10.5943 11.6856 10.973 11.4415 11.2065C11.3198 11.3229 11.1598 11.3819 10.9998 11.3819C10.8398 11.3819 10.6798 11.3237 10.5581 11.2065L5.99982 6.84641L1.44146 11.2065C1.31979 11.3229 1.15979 11.3819 0.999793 11.3819C0.839793 11.3819 0.679793 11.3237 0.55813 11.2065C0.313957 10.973 0.313957 10.5943 0.55813 10.3608L5.11646 6.00067L0.55813 1.64054C0.313957 1.407 0.313957 1.02834 0.55813 0.794796C0.802293 0.56124 1.19813 0.56124 1.4423 0.794796L6.00064 5.15494L10.5589 0.794796C10.8031 0.56124 11.199 0.56124 11.4431 0.794796C11.6873 1.02834 11.6873 1.407 11.4431 1.64054L6.88482 6.00067L11.4415 10.3608Z" fill="#FF835C"/>
</svg>
