<svg width="20" height="20" viewBox="0 0 20 20" fill="none" xmlns="http://www.w3.org/2000/svg">
<path fill-rule="evenodd" clip-rule="evenodd" d="M5.20676 7.70699C4.81576 8.09799 4.18376 8.09799 3.79276 7.70699L0.792762 4.70699C0.401762 4.31599 0.401762 3.68399 0.792762 3.293L3.79276 0.292995C3.98776 0.0979939 4.24376 -5.72205e-06 4.49976 -5.72205e-06C4.75576 -5.72205e-06 5.01176 0.0979939 5.20676 0.292995C5.59776 0.683994 5.59776 1.31599 5.20676 1.70699L3.91376 2.99999H15.9098C17.8898 2.99999 19.4998 4.58299 19.4998 6.52899V8.99999C19.4998 9.55299 19.0528 9.99999 18.4998 9.99999C17.9468 9.99999 17.4998 9.55299 17.4998 8.99999V6.52899C17.4998 5.68599 16.7868 4.99999 15.9098 4.99999L3.91376 4.99999L5.20676 6.29299C5.59776 6.68399 5.59776 7.31599 5.20676 7.70699ZM16.0856 17H4.08956C2.11056 17 0.499562 15.417 0.499562 13.471L0.499562 11C0.499562 10.447 0.946562 9.99999 1.49956 9.99999C2.05256 9.99999 2.49956 10.447 2.49956 11V13.471C2.49956 14.313 3.21256 15 4.08956 15H16.0856L14.7926 13.707C14.4026 13.316 14.4026 12.684 14.7926 12.293C14.9876 12.098 15.2436 12 15.4996 12C15.7556 12 16.0116 12.098 16.2066 12.293L19.2066 15.293C19.5976 15.684 19.5976 16.316 19.2066 16.707L16.2066 19.707C15.8166 20.098 15.1836 20.098 14.7926 19.707C14.4026 19.316 14.4026 18.684 14.7926 18.293L16.0856 17Z" fill="#FEF8EF"/>
</svg>
