<svg width="20" height="18" viewBox="0 0 20 18" fill="none" xmlns="http://www.w3.org/2000/svg">
<path fill-rule="evenodd" clip-rule="evenodd" d="M16.5 16C15.948 16 15.5 15.552 15.5 15C15.5 14.448 15.948 14 16.5 14C17.052 14 17.5 14.448 17.5 15C17.5 15.552 17.052 16 16.5 16ZM3.5 10C2.948 10 2.5 9.552 2.5 9C2.5 8.448 2.948 8 3.5 8C4.052 8 4.5 8.448 4.5 9C4.5 9.552 4.052 10 3.5 10ZM16.5 2C17.052 2 17.5 2.448 17.5 3C17.5 3.552 17.052 4 16.5 4C15.948 4 15.5 3.552 15.5 3C15.5 2.448 15.948 2 16.5 2ZM16.5 12C15.683 12 14.943 12.33 14.401 12.861L6.466 9.335C6.479 9.224 6.5 9.114 6.5 9C6.5 8.886 6.479 8.776 6.466 8.665L14.401 5.139C14.943 5.67 15.683 6 16.5 6C18.154 6 19.5 4.654 19.5 3C19.5 1.346 18.154 0 16.5 0C14.846 0 13.5 1.346 13.5 3C13.5 3.114 13.521 3.224 13.534 3.335L5.599 6.861C5.057 6.33 4.317 6 3.5 6C1.846 6 0.5 7.346 0.5 9C0.5 10.654 1.846 12 3.5 12C4.317 12 5.057 11.67 5.599 11.139L13.534 14.665C13.521 14.776 13.5 14.886 13.5 15C13.5 16.654 14.846 18 16.5 18C18.154 18 19.5 16.654 19.5 15C19.5 13.346 18.154 12 16.5 12Z" fill="#FEF8EF"/>
</svg>
